<mxfile host="app.diagrams.net" modified="2020-10-19T15:24:23.376Z" agent="5.0 (X11)" etag="Sy4SNyGWeevG2Eaj8xDu" version="13.8.0" type="github">
  <diagram id="IQ_NlQfiU5VKD87iZlFr" name="Page-1">
    <mxGraphModel dx="1229" dy="909" grid="1" gridSize="10" guides="1" tooltips="1" connect="1" arrows="1" fold="1" page="1" pageScale="1" pageWidth="827" pageHeight="1169" math="0" shadow="0">
      <root>
        <mxCell id="0" />
        <mxCell id="1" parent="0" />
      </root>
    </mxGraphModel>
  </diagram>
</mxfile>
